<svg width="1454.2" height="809.6" xmlns="http://www.w3.org/2000/svg" xmlns:xlink="http://www.w3.org/1999/xlink"><line x1="259.25" y1="7.5" x2="23.0" y2="32.0" style="stroke:black; stroke-width:1px;" />
<line x1="259.25" y1="7.5" x2="79.5" y2="32.0" style="stroke:black; stroke-width:1px;" />
<line x1="259.25" y1="7.5" x2="116.5" y2="32.0" style="stroke:black; stroke-width:1px;" />
<line x1="259.25" y1="7.5" x2="146.0" y2="32.0" style="stroke:black; stroke-width:1px;" />
<line x1="146.0" y1="39.5" x2="146.0" y2="64.0" style="stroke:black; stroke-width:1px;" />
<line x1="146.0" y1="71.5" x2="125.0" y2="96.0" style="stroke:black; stroke-width:1px;" />
<line x1="146.0" y1="71.5" x2="167.0" y2="96.0" style="stroke:black; stroke-width:1px;" />
<line x1="167.0" y1="103.5" x2="117.75" y2="128.0" style="stroke:black; stroke-width:1px;" />
<line x1="117.75" y1="135.5" x2="98.25" y2="160.0" style="stroke:black; stroke-width:1px;" />
<line x1="117.75" y1="135.5" x2="113.75" y2="160.0" style="stroke:black; stroke-width:1px;" />
<line x1="117.75" y1="135.5" x2="137.25" y2="160.0" style="stroke:black; stroke-width:1px;" />
<line x1="137.25" y1="167.5" x2="137.25" y2="192.0" style="stroke:black; stroke-width:1px;" />
<line x1="167.0" y1="103.5" x2="141.5" y2="128.0" style="stroke:black; stroke-width:1px;" />
<line x1="167.0" y1="103.5" x2="165.25" y2="128.0" style="stroke:black; stroke-width:1px;" />
<line x1="165.25" y1="135.5" x2="165.25" y2="160.0" style="stroke:black; stroke-width:1px;" />
<line x1="167.0" y1="103.5" x2="188.75" y2="128.0" style="stroke:black; stroke-width:1px;" />
<line x1="167.0" y1="103.5" x2="216.25" y2="128.0" style="stroke:black; stroke-width:1px;" />
<line x1="259.25" y1="7.5" x2="244.5" y2="32.0" style="stroke:black; stroke-width:1px;" />
<line x1="259.25" y1="7.5" x2="338.0" y2="32.0" style="stroke:black; stroke-width:1px;" />
<line x1="259.25" y1="7.5" x2="424.0" y2="32.0" style="stroke:black; stroke-width:1px;" />
<line x1="424.0" y1="39.5" x2="253.5" y2="64.0" style="stroke:black; stroke-width:1px;" />
<line x1="424.0" y1="39.5" x2="291.5" y2="64.0" style="stroke:black; stroke-width:1px;" />
<line x1="291.5" y1="71.5" x2="291.5" y2="96.0" style="stroke:black; stroke-width:1px;" />
<line x1="291.5" y1="103.5" x2="245.25" y2="128.0" style="stroke:black; stroke-width:1px;" />
<line x1="291.5" y1="103.5" x2="262.25" y2="128.0" style="stroke:black; stroke-width:1px;" />
<line x1="291.5" y1="103.5" x2="300.75" y2="128.0" style="stroke:black; stroke-width:1px;" />
<line x1="300.75" y1="135.5" x2="287.5" y2="160.0" style="stroke:black; stroke-width:1px;" />
<line x1="287.5" y1="167.5" x2="257.25" y2="192.0" style="stroke:black; stroke-width:1px;" />
<line x1="257.25" y1="199.5" x2="235.0" y2="224.0" style="stroke:black; stroke-width:1px;" />
<line x1="235.0" y1="231.5" x2="235.0" y2="256.0" style="stroke:black; stroke-width:1px;" />
<line x1="235.0" y1="263.5" x2="218.25" y2="288.0" style="stroke:black; stroke-width:1px;" />
<line x1="235.0" y1="263.5" x2="251.75" y2="288.0" style="stroke:black; stroke-width:1px;" />
<line x1="251.75" y1="295.5" x2="251.75" y2="320.0" style="stroke:black; stroke-width:1px;" />
<line x1="257.25" y1="199.5" x2="279.5" y2="224.0" style="stroke:black; stroke-width:1px;" />
<line x1="287.5" y1="167.5" x2="317.75" y2="192.0" style="stroke:black; stroke-width:1px;" />
<line x1="300.75" y1="135.5" x2="314.0" y2="160.0" style="stroke:black; stroke-width:1px;" />
<line x1="291.5" y1="103.5" x2="337.75" y2="128.0" style="stroke:black; stroke-width:1px;" />
<line x1="424.0" y1="39.5" x2="330.5" y2="64.0" style="stroke:black; stroke-width:1px;" />
<line x1="424.0" y1="39.5" x2="347.5" y2="64.0" style="stroke:black; stroke-width:1px;" />
<line x1="424.0" y1="39.5" x2="368.0" y2="64.0" style="stroke:black; stroke-width:1px;" />
<line x1="424.0" y1="39.5" x2="387.0" y2="64.0" style="stroke:black; stroke-width:1px;" />
<line x1="424.0" y1="39.5" x2="402.5" y2="64.0" style="stroke:black; stroke-width:1px;" />
<line x1="424.0" y1="39.5" x2="419.5" y2="64.0" style="stroke:black; stroke-width:1px;" />
<line x1="424.0" y1="39.5" x2="436.5" y2="64.0" style="stroke:black; stroke-width:1px;" />
<line x1="424.0" y1="39.5" x2="453.5" y2="64.0" style="stroke:black; stroke-width:1px;" />
<line x1="424.0" y1="39.5" x2="470.5" y2="64.0" style="stroke:black; stroke-width:1px;" />
<line x1="424.0" y1="39.5" x2="486.0" y2="64.0" style="stroke:black; stroke-width:1px;" />
<line x1="424.0" y1="39.5" x2="509.5" y2="64.0" style="stroke:black; stroke-width:1px;" />
<line x1="424.0" y1="39.5" x2="533.5" y2="64.0" style="stroke:black; stroke-width:1px;" />
<line x1="424.0" y1="39.5" x2="549.5" y2="64.0" style="stroke:black; stroke-width:1px;" />
<line x1="424.0" y1="39.5" x2="565.5" y2="64.0" style="stroke:black; stroke-width:1px;" />
<line x1="424.0" y1="39.5" x2="580.0" y2="64.0" style="stroke:black; stroke-width:1px;" />
<line x1="424.0" y1="39.5" x2="594.5" y2="64.0" style="stroke:black; stroke-width:1px;" />
<line x1="259.25" y1="7.5" x2="457.0" y2="32.0" style="stroke:black; stroke-width:1px;" />
<line x1="259.25" y1="7.5" x2="495.5" y2="32.0" style="stroke:black; stroke-width:1px;" />
<rect x="205.75" y="288.0" width="25.0" height="15.0" style="fill:orange; stroke:rgb(0,0,0);" rx="1"/>
<text x="207" y="297" style="font-family:sans-serif;font-size:10px;">
mas
</text>
<rect x="249.5" y="64.0" width="8.0" height="15.0" style="fill:orange; stroke:rgb(0,0,0);" rx="1"/>
<text x="251" y="73" style="font-family:sans-serif;font-size:10px;">
{
</text>
<rect x="324.0" y="32.0" width="28.0" height="15.0" style="fill:orange; stroke:rgb(0,0,0);" rx="1"/>
<text x="326" y="41" style="font-family:sans-serif;font-size:10px;">
main
</text>
<rect x="409.5" y="32.0" width="29.0" height="15.0" style="fill:orange; stroke:rgb(0,0,0);" rx="1"/>
<text x="411" y="41" style="font-family:sans-serif;font-size:10px;">
body
</text>
<rect x="448.5" y="64.0" width="10.0" height="15.0" style="fill:orange; stroke:rgb(0,0,0);" rx="1"/>
<text x="450" y="73" style="font-family:sans-serif;font-size:10px;">
+
</text>
<rect x="496.5" y="64.0" width="26.0" height="15.0" style="fill:orange; stroke:rgb(0,0,0);" rx="1"/>
<text x="498" y="73" style="font-family:sans-serif;font-size:10px;">
print
</text>
<rect x="157.25" y="160.0" width="16.0" height="15.0" style="fill:orange; stroke:rgb(0,0,0);" rx="1"/>
<text x="159" y="169" style="font-family:sans-serif;font-size:10px;">
int
</text>
<rect x="482.5" y="64.0" width="7.0" height="15.0" style="fill:orange; stroke:rgb(0,0,0);" rx="1"/>
<text x="484" y="73" style="font-family:sans-serif;font-size:10px;">
;
</text>
<rect x="544.5" y="64.0" width="10.0" height="15.0" style="fill:orange; stroke:rgb(0,0,0);" rx="1"/>
<text x="546" y="73" style="font-family:sans-serif;font-size:10px;">
a
</text>
<rect x="236.25" y="0.0" width="46.0" height="15.0" style="fill:orange; stroke:rgb(0,0,0);" rx="1"/>
<text x="238" y="9" style="font-family:sans-serif;font-size:10px;">
program
</text>
<rect x="276.5" y="160.0" width="22.0" height="15.0" style="fill:orange; stroke:rgb(0,0,0);" rx="1"/>
<text x="278" y="169" style="font-family:sans-serif;font-size:10px;">
exp
</text>
<rect x="273.0" y="96.0" width="37.0" height="15.0" style="fill:orange; stroke:rgb(0,0,0);" rx="1"/>
<text x="275" y="105" style="font-family:sans-serif;font-size:10px;">
assign
</text>
<rect x="113.0" y="32.0" width="7.0" height="15.0" style="fill:orange; stroke:rgb(0,0,0);" rx="1"/>
<text x="115" y="41" style="font-family:sans-serif;font-size:10px;">
;
</text>
<rect x="264.5" y="64.0" width="54.0" height="15.0" style="fill:orange; stroke:rgb(0,0,0);" rx="1"/>
<text x="266" y="73" style="font-family:sans-serif;font-size:10px;">
statement
</text>
<rect x="342.5" y="64.0" width="10.0" height="15.0" style="fill:orange; stroke:rgb(0,0,0);" rx="1"/>
<text x="344" y="73" style="font-family:sans-serif;font-size:10px;">
=
</text>
<rect x="237.75" y="288.0" width="28.0" height="15.0" style="fill:orange; stroke:rgb(0,0,0);" rx="1"/>
<text x="239" y="297" style="font-family:sans-serif;font-size:10px;">
idcte
</text>
<rect x="590.5" y="64.0" width="8.0" height="15.0" style="fill:orange; stroke:rgb(0,0,0);" rx="1"/>
<text x="592" y="73" style="font-family:sans-serif;font-size:10px;">
}
</text>
<rect x="475.5" y="32.0" width="40.0" height="15.0" style="fill:orange; stroke:rgb(0,0,0);" rx="1"/>
<text x="477" y="41" style="font-family:sans-serif;font-size:10px;">
&lt;EOF&gt;
</text>
<rect x="127.0" y="32.0" width="38.0" height="15.0" style="fill:orange; stroke:rgb(0,0,0);" rx="1"/>
<text x="129" y="41" style="font-family:sans-serif;font-size:10px;">
o_vars
</text>
<rect x="236.25" y="192.0" width="42.0" height="15.0" style="fill:orange; stroke:rgb(0,0,0);" rx="1"/>
<text x="238" y="201" style="font-family:sans-serif;font-size:10px;">
termino
</text>
<rect x="258.5" y="224.0" width="42.0" height="15.0" style="fill:orange; stroke:rgb(0,0,0);" rx="1"/>
<text x="260" y="233" style="font-family:sans-serif;font-size:10px;">
por_div
</text>
<rect x="325.5" y="64.0" width="10.0" height="15.0" style="fill:orange; stroke:rgb(0,0,0);" rx="1"/>
<text x="327" y="73" style="font-family:sans-serif;font-size:10px;">
b
</text>
<rect x="414.5" y="64.0" width="10.0" height="15.0" style="fill:orange; stroke:rgb(0,0,0);" rx="1"/>
<text x="416" y="73" style="font-family:sans-serif;font-size:10px;">
=
</text>
<rect x="115.0" y="96.0" width="20.0" height="15.0" style="fill:orange; stroke:rgb(0,0,0);" rx="1"/>
<text x="117" y="105" style="font-family:sans-serif;font-size:10px;">
var
</text>
<rect x="274.25" y="128.0" width="53.0" height="15.0" style="fill:orange; stroke:rgb(0,0,0);" rx="1"/>
<text x="276" y="137" style="font-family:sans-serif;font-size:10px;">
expresion
</text>
<rect x="53.0" y="32.0" width="53.0" height="15.0" style="fill:orange; stroke:rgb(0,0,0);" rx="1"/>
<text x="55" y="41" style="font-family:sans-serif;font-size:10px;">
calculator
</text>
<rect x="138.0" y="128.0" width="7.0" height="15.0" style="fill:orange; stroke:rgb(0,0,0);" rx="1"/>
<text x="140" y="137" style="font-family:sans-serif;font-size:10px;">
:
</text>
<rect x="383.5" y="64.0" width="7.0" height="15.0" style="fill:orange; stroke:rgb(0,0,0);" rx="1"/>
<text x="385" y="73" style="font-family:sans-serif;font-size:10px;">
;
</text>
<rect x="561.5" y="64.0" width="8.0" height="15.0" style="fill:orange; stroke:rgb(0,0,0);" rx="1"/>
<text x="563" y="73" style="font-family:sans-serif;font-size:10px;">
)
</text>
<rect x="529.5" y="64.0" width="8.0" height="15.0" style="fill:orange; stroke:rgb(0,0,0);" rx="1"/>
<text x="531" y="73" style="font-family:sans-serif;font-size:10px;">
(
</text>
<rect x="225.0" y="256.0" width="20.0" height="15.0" style="fill:orange; stroke:rgb(0,0,0);" rx="1"/>
<text x="227" y="265" style="font-family:sans-serif;font-size:10px;">
opt
</text>
<rect x="397.5" y="64.0" width="10.0" height="15.0" style="fill:orange; stroke:rgb(0,0,0);" rx="1"/>
<text x="399" y="73" style="font-family:sans-serif;font-size:10px;">
a
</text>
<rect x="104.75" y="128.0" width="26.0" height="15.0" style="fill:orange; stroke:rgb(0,0,0);" rx="1"/>
<text x="106" y="137" style="font-family:sans-serif;font-size:10px;">
listid
</text>
<rect x="246.75" y="320.0" width="10.0" height="15.0" style="fill:orange; stroke:rgb(0,0,0);" rx="1"/>
<text x="248" y="329" style="font-family:sans-serif;font-size:10px;">
5
</text>
<rect x="124.25" y="160.0" width="26.0" height="15.0" style="fill:orange; stroke:rgb(0,0,0);" rx="1"/>
<text x="126" y="169" style="font-family:sans-serif;font-size:10px;">
listid
</text>
<rect x="218.5" y="224.0" width="33.0" height="15.0" style="fill:orange; stroke:rgb(0,0,0);" rx="1"/>
<text x="220" y="233" style="font-family:sans-serif;font-size:10px;">
factor
</text>
<rect x="431.5" y="64.0" width="10.0" height="15.0" style="fill:orange; stroke:rgb(0,0,0);" rx="1"/>
<text x="433" y="73" style="font-family:sans-serif;font-size:10px;">
a
</text>
<rect x="285.25" y="192.0" width="65.0" height="15.0" style="fill:orange; stroke:rgb(0,0,0);" rx="1"/>
<text x="287" y="201" style="font-family:sans-serif;font-size:10px;">
mas_menos
</text>
<rect x="257.25" y="128.0" width="10.0" height="15.0" style="fill:orange; stroke:rgb(0,0,0);" rx="1"/>
<text x="259" y="137" style="font-family:sans-serif;font-size:10px;">
=
</text>
<rect x="142.0" y="96.0" width="50.0" height="15.0" style="fill:orange; stroke:rgb(0,0,0);" rx="1"/>
<text x="144" y="105" style="font-family:sans-serif;font-size:10px;">
variables
</text>
<rect x="240.25" y="128.0" width="10.0" height="15.0" style="fill:orange; stroke:rgb(0,0,0);" rx="1"/>
<text x="242" y="137" style="font-family:sans-serif;font-size:10px;">
a
</text>
<rect x="0.0" y="32.0" width="46.0" height="15.0" style="fill:orange; stroke:rgb(0,0,0);" rx="1"/>
<text x="2" y="41" style="font-family:sans-serif;font-size:10px;">
program
</text>
<rect x="133.0" y="64.0" width="26.0" height="15.0" style="fill:orange; stroke:rgb(0,0,0);" rx="1"/>
<text x="135" y="73" style="font-family:sans-serif;font-size:10px;">
vars
</text>
<rect x="185.25" y="128.0" width="7.0" height="15.0" style="fill:orange; stroke:rgb(0,0,0);" rx="1"/>
<text x="187" y="137" style="font-family:sans-serif;font-size:10px;">
;
</text>
<rect x="465.5" y="64.0" width="10.0" height="15.0" style="fill:orange; stroke:rgb(0,0,0);" rx="1"/>
<text x="467" y="73" style="font-family:sans-serif;font-size:10px;">
b
</text>
<rect x="222.5" y="32.0" width="44.0" height="15.0" style="fill:orange; stroke:rgb(0,0,0);" rx="1"/>
<text x="224" y="41" style="font-family:sans-serif;font-size:10px;">
o_funcs
</text>
<rect x="110.25" y="160.0" width="7.0" height="15.0" style="fill:orange; stroke:rgb(0,0,0);" rx="1"/>
<text x="112" y="169" style="font-family:sans-serif;font-size:10px;">
,
</text>
<rect x="152.25" y="128.0" width="26.0" height="15.0" style="fill:orange; stroke:rgb(0,0,0);" rx="1"/>
<text x="154" y="137" style="font-family:sans-serif;font-size:10px;">
type
</text>
<rect x="93.25" y="160.0" width="10.0" height="15.0" style="fill:orange; stroke:rgb(0,0,0);" rx="1"/>
<text x="95" y="169" style="font-family:sans-serif;font-size:10px;">
a
</text>
<rect x="132.25" y="192.0" width="10.0" height="15.0" style="fill:orange; stroke:rgb(0,0,0);" rx="1"/>
<text x="134" y="201" style="font-family:sans-serif;font-size:10px;">
b
</text>
<rect x="305.5" y="160.0" width="17.0" height="15.0" style="fill:orange; stroke:rgb(0,0,0);" rx="1"/>
<text x="307" y="169" style="font-family:sans-serif;font-size:10px;">
op
</text>
<rect x="199.25" y="128.0" width="34.0" height="15.0" style="fill:orange; stroke:rgb(0,0,0);" rx="1"/>
<text x="201" y="137" style="font-family:sans-serif;font-size:10px;">
listvar
</text>
<rect x="334.25" y="128.0" width="7.0" height="15.0" style="fill:orange; stroke:rgb(0,0,0);" rx="1"/>
<text x="336" y="137" style="font-family:sans-serif;font-size:10px;">
;
</text>
<rect x="359.5" y="64.0" width="17.0" height="15.0" style="fill:orange; stroke:rgb(0,0,0);" rx="1"/>
<text x="361" y="73" style="font-family:sans-serif;font-size:10px;">
10
</text>
<rect x="576.5" y="64.0" width="7.0" height="15.0" style="fill:orange; stroke:rgb(0,0,0);" rx="1"/>
<text x="578" y="73" style="font-family:sans-serif;font-size:10px;">
;
</text>
<rect x="445.5" y="32.0" width="23.0" height="15.0" style="fill:orange; stroke:rgb(0,0,0);" rx="1"/>
<text x="447" y="41" style="font-family:sans-serif;font-size:10px;">
end
</text>
</svg>